<svg xmlns="http://www.w3.org/2000/svg" viewBox="0 0 561.02 360.69"><defs><style>.cls-1{fill:#ffffff;}</style></defs><title>Maerschalk_Logo_RGB_DEF</title><g id="Isolation_Mode" data-name="Isolation Mode"><path class="cls-1" d="M51.71,40a2.32,2.32,0,0,0-.35,3.26L73.74,71a2.32,2.32,0,0,0,3.61-2.91L55,40.31A2.32,2.32,0,0,0,51.71,40Z" transform="translate(0 0.5)"/><path class="cls-1" d="M55.43,33.76A2.32,2.32,0,0,0,55.08,37L77.46,64.8a2.32,2.32,0,1,0,3.61-2.91L58.69,34.11A2.31,2.31,0,0,0,55.43,33.76Z" transform="translate(0 0.5)"/><path class="cls-1" d="M58.65,59.41a2.32,2.32,0,0,0-.35,3.26L69.5,76.55a2.32,2.32,0,1,0,3.61-2.91L61.91,59.76A2.31,2.31,0,0,0,58.65,59.41Z" transform="translate(0 0.5)"/><path class="cls-1" d="M72.75,46.6a2.32,2.32,0,0,0,1.8-3.77L63.36,28.94a2.32,2.32,0,0,0-3.61,2.91L70.95,45.74A2.31,2.31,0,0,0,72.75,46.6Z" transform="translate(0 0.5)"/><path class="cls-1" d="M20.17,127.13a300.09,300.09,0,0,0,30.31-65.9c-16,39.48-30.58,55.42-38.89,61.79l-.16-.09C22.32,97.19,41.53,38.3,41.53,38.3c6.83-16.63,14.77-27.72,22.85-35-11.78,6-24.24,18.47-34.29,43,0,0-19.21,58.9-30.09,84.63,0,0,3.58,1.63,8.73,4.2,12.9,5.23,37.62,11.38,56.82-6.95C48.81,136.16,30.62,131.36,20.17,127.13Z" transform="translate(0 0.5)"/><path class="cls-1" d="M170.25,166.78c.62-1.09,1.28-2.31,2-3.79,3.5-7.23,1.75-20,1.75-20,10-7.22,5.94-18.65,5.94-18.65S154.41,105.19,129.39,101,72,124.3,72,124.3,67.94,135.72,78,142.94c0,0-1.75,12.82,1.75,20s5.94,9.44,5.94,9.44a38.45,38.45,0,0,1-.49,4.13A138.94,138.94,0,0,0,63.87,191.7c-.22,11,1.16,59.26,39.58,99.52A3.07,3.07,0,1,1,99,295.47a149.51,149.51,0,0,1-41.28-98.34c-1.51,1.44-3.88,4.24-5.35,5.76,0,13.62,3.86,58.1,40.53,96.53a3.07,3.07,0,0,1-2.22,5.19,3.12,3.12,0,0,1-2.22-1c-41.32-41.84-41-95.76-41-95.76s-5.12,5.92-7.3,8C40.92,234.33,49.28,275,82.71,311c16.91,38.74,37.65,49.21,37.74,49.21s25.3-11.86,39.69-64.63c18.59-68.15,66.5-75.71,66.5-75.71C212.44,192.14,192.48,174.85,170.25,166.78ZM109,137.7a26.42,26.42,0,0,1,2.62,1.4c2.88,1.75,2.62-2.59,2.62-7.51v-8.91a22.57,22.57,0,0,1,10.19,6.05A81,81,0,0,0,143.92,127a11,11,0,0,1,6.89.66,50.76,50.76,0,0,1,5,3.1c2.09,1.5,2.23,4.91,1.65,7.42-.83,3.59-.78,12.31-.78,14.7v4.34c0,3.86-1.95,9-4.59,12.74a136.21,136.21,0,0,1-16.64-4.35l-3.94,24.69a22,22,0,0,1-12.2,3.66H116a3.54,3.54,0,0,1-3.33-3.73V178.87a3.86,3.86,0,0,1,3.72-3.76c4.22-.31,10.84-1.69,13.3-7.14,0,0-12.72,2.21-20,0-2.45-.73-7.33-1.89-7.33-1.89s5.11-3.16,15.56-2.14c5.07.49,9.49,2.77,16.78-2.65a24.57,24.57,0,0,1-17-.79l-3.73-2,5.88-6.85c3.25-3.78,3.48-5.42.22-4.54a10.44,10.44,0,0,1-6-.1c-2.89-1-6.15-.66-6.23,1.43C107.86,148.48,100.88,143.29,109,137.7ZM80.29,125.32c9.44,2.21,22.08,2,22.08,2a33.69,33.69,0,0,0-8.87,14.15A23.71,23.71,0,0,0,80.29,125.32Zm2.07,90.9a33.58,33.58,0,0,1-.1-11.28s18.82,11.17,47.63,1.38c0,0-14.79,14.79-44.36,20C85.53,226.29,83.45,222.89,82.37,216.22ZM152.95,282a3,3,0,0,1-4.23-.45l-4.93-6.12-4.93,6.12a3,3,0,0,1-4.69-3.78l5.75-7.14-5.75-7.14a3,3,0,0,1,4.69-3.78l4.93,6.12,4.93-6.12a3,3,0,0,1,4.69,3.78l-5.75,7.14,5.75,7.14A3,3,0,0,1,152.95,282Zm-4.7-49.82c-32.37,42.75-56.88,8.33-56.88,8.33,34-2.51,51.53-32.24,51.53-32.24l21.67,44.67Z" transform="translate(0 0.5)"/><path class="cls-1" d="M169.56,55.48c5.72,2.68,35,.86,67.29,42.94,0,0,0-17.42-15.49-45.54-41.15-70.95-91.22-51.15-94-50C139.33,10.35,154.06,38.6,169.56,55.48Z" transform="translate(0 0.5)"/><path class="cls-1" d="M86.55,70.12C76.49,100.93,49.76,84.53,49.76,84.53a160.82,160.82,0,0,1-17,34C62.36,138.56,85,106.66,85,106.66c14.22-17.58,41.4-13.89,58.92-9C122.36,79,120.47,52.13,120.34,49.75c-1.4-18.24-6.61-31-15.48-37.94A29.33,29.33,0,0,0,93.15,6.59c-10.89,0-20.24,8.22-20.24,8.22C98.38,33.59,86.55,70.12,86.55,70.12Z" transform="translate(0 0.5)"/><path class="cls-1" d="M164.41,63.51C143.85,41,130.25,8.77,111.14,4.4l.09.07C122.33,13,128.77,28,130.38,49.1v.22c0,1.49,1.46,32.29,29.85,47.93a89.31,89.31,0,0,0,11.88,5c1.12.35,2.23.8,3.41,1.11,26.23,8,55.41,2.33,57.52,5.25C198.16,60.47,164.41,63.51,164.41,63.51Z" transform="translate(0 0.5)"/><polygon class="cls-1" points="318.29 138.67 318.29 29.6 307.19 29.6 291.9 92.93 276.41 29.6 265.51 29.6 265.51 138.67 276.41 138.67 276.41 75.34 286.28 116.14 297.52 116.14 307.33 75.34 307.33 138.67 318.29 138.67"/><path class="cls-1" d="M377.91,138.17,359.23,29.1H347.39L328.78,138.17h10.9l4.19-24.56h18.88l4.19,24.56Zm-32.14-35.45,7.58-44.39,7.58,44.39Z" transform="translate(0 0.5)"/><polygon class="cls-1" points="402.63 138.67 425.46 138.67 425.46 127.78 400.76 127.78 402.63 138.67"/><polygon class="cls-1" points="387.57 114.68 387.57 138.67 391.66 138.67 387.57 114.68"/><polygon class="cls-1" points="398.46 89.55 414.56 89.55 414.56 78.66 398.46 78.66 398.46 40.5 425.46 40.5 425.46 29.6 387.57 29.6 387.57 50.73 398.46 114.36 398.46 89.55"/><path class="cls-1" d="M285.74,149.31a18.49,18.49,0,0,0-14.61,6.43,22.55,22.55,0,0,0-5.62,15.36v16.37q0,8.46,20.37,22.19a29.19,29.19,0,0,1,4.87,4.5,9.11,9.11,0,0,1,2.7,6.06v16.31a17,17,0,0,1-1.62,7.75q-1.62,3.21-6.09,3.21a8.13,8.13,0,0,1-6.94-3.21,12.6,12.6,0,0,1-2.4-7.75V228.4H265.51v8.12A22.6,22.6,0,0,0,271.13,252a18.53,18.53,0,0,0,14.61,6.39q8.93,0,13.8-6.39a24.77,24.77,0,0,0,4.87-15.46V220.21q0-4.53-3.62-9.57t-13-11a40.27,40.27,0,0,1-7.1-5.92q-4.26-4.23-4.26-6.26V171.09a12.48,12.48,0,0,1,2.4-7.68,8.13,8.13,0,0,1,6.94-3.21q4.47,0,6.09,3.21a16.83,16.83,0,0,1,1.62,7.68v8.19h11v-8.19a24.7,24.7,0,0,0-4.87-15.36Q294.67,149.31,285.74,149.31Z" transform="translate(0 0.5)"/><path class="cls-1" d="M335.21,149.31a21.89,21.89,0,0,0-21.85,21.79v65.43a21.82,21.82,0,0,0,43.64,0V215H346.1v21.55a10.93,10.93,0,1,1-21.86,0V171.09a10.93,10.93,0,0,1,21.86,0V190H357V171.09a21.94,21.94,0,0,0-21.79-21.79Z" transform="translate(0 0.5)"/><polygon class="cls-1" points="391.65 198.86 377.23 198.86 377.23 149.81 366.34 149.81 366.34 258.88 377.23 258.88 377.23 209.75 391.65 209.75 391.65 258.88 402.54 258.88 402.54 149.81 391.65 149.81 391.65 198.86"/><path class="cls-1" d="M431.09,149.31,412.48,258.38h10.89l4.19-24.56h18.88l4.19,24.56h11L442.93,149.31Zm-1.63,73.62L437,178.54l7.58,44.39Z" transform="translate(0 0.5)"/><polygon class="cls-1" points="479.81 149.81 468.92 149.81 468.92 258.88 505.93 258.88 505.93 247.98 479.81 247.98 479.81 149.81"/><polygon class="cls-1" points="561.02 149.81 560.81 149.81 548.57 149.81 548.52 149.81 547.58 151.93 528.1 193.82 528.1 149.81 516.76 149.81 516.76 258.88 528.1 258.88 528.1 220.59 534.14 207.61 543.79 240.48 549.01 258.88 549.2 258.88 560.82 258.88 560.96 258.88 541.35 192.11 561.02 149.81"/><path class="cls-1" d="M462.67,90.53c8.82-3,13.54-10,13.54-21.47V52c0-15.67-8.82-23.19-24.94-23.19h-17.5v109.7h11V92.26h7.46l16.28,46.23h11.41Zm-12-8.31h-5.94V39h5.94c10.19,0,14.6,4.39,14.6,15.83V66.4C465.26,77.84,460.85,82.23,450.66,82.23Z" transform="translate(0 0.5)"/></g></svg>
